<svg xmlns="http://www.w3.org/2000/svg" width="17" height="13" viewBox="0 0 17 13"><path d="M1.632,58.946q.323.228,1.945,1.355t2.486,1.735q.095.067.4.29t.512.361q.2.138.493.309a2.86,2.86,0,0,0,.546.256,1.5,1.5,0,0,0,.474.086H8.51a1.5,1.5,0,0,0,.474-.086A2.863,2.863,0,0,0,9.529,63q.289-.171.493-.309t.512-.361q.308-.224.4-.29l4.44-3.09a4.511,4.511,0,0,0,1.157-1.169A2.514,2.514,0,0,0,17,56.341a1.532,1.532,0,0,0-1.518-1.521H1.518a1.354,1.354,0,0,0-1.124.494A1.922,1.922,0,0,0,0,56.55a2.223,2.223,0,0,0,.522,1.3A4.713,4.713,0,0,0,1.632,58.946Z" transform="translate(0 -54.82)" fill="#fff"/><path d="M16.051,185.26q-3.111,2.1-4.724,3.266-.541.4-.877.62a5.42,5.42,0,0,1-.9.454,2.735,2.735,0,0,1-1.043.232H8.49a2.736,2.736,0,0,1-1.044-.232,5.423,5.423,0,0,1-.9-.454q-.337-.222-.877-.62-1.281-.937-4.715-3.266A5.023,5.023,0,0,1,0,184.437v7.516a1.456,1.456,0,0,0,.446,1.07,1.463,1.463,0,0,0,1.072.445H15.482A1.521,1.521,0,0,0,17,191.953v-7.516A5.229,5.229,0,0,1,16.051,185.26Z" transform="translate(0 -180.467)" fill="#fff"/></svg>