<svg xmlns="http://www.w3.org/2000/svg" xmlns:xlink="http://www.w3.org/1999/xlink"><symbol id="icon-arr" viewBox="0 0 138.284 8.441"><path d="M0 3.642h131.949V.005l6.335 4.087-6.335 4.354V4.868H0z"/></symbol><symbol id="icon-arr_thick" viewBox="0 0 28.284 14.147"><path d="M0 6.096h21.949v-6.1l6.335 6.85-6.335 7.3v-6H0z"/></symbol><symbol id="icon-close" viewBox="0 0 30 30"><path fill-rule="evenodd" d="M27.228 3.186L15.914 14.5l11.314 11.314-1.414 1.414L14.5 15.914 3.186 27.228l-1.414-1.414L13.086 14.5 1.772 3.186l1.414-1.414L14.5 13.086 25.814 1.772l1.414 1.414z"/></symbol><symbol id="icon-half_bullet" viewBox="0 0 10 5"><path d="M10 0A5 5 0 010 0c4.655.027 6.727.027 10 0z"/></symbol><symbol id="icon-location" viewBox="0 0 11 16"><path d="M5.5 16C6.614 14.37 11 7.783 11 5.22A5.365 5.365 0 005.5 0 5.366 5.366 0 000 5.22C0 7.784 4.386 14.37 5.5 16zm0-12.81a2.086 2.086 0 012.139 2.03A2.086 2.086 0 015.5 7.25a2.087 2.087 0 01-2.139-2.03A2.089 2.089 0 015.5 3.19zm0 0"/></symbol><symbol id="icon-mail" viewBox="0 0 17 13"><path d="M1.632 4.126q.323.228 1.945 1.355t2.486 1.735q.095.067.4.29t.512.361q.2.138.493.309a2.86 2.86 0 00.546.256 1.5 1.5 0 00.474.086h.022a1.5 1.5 0 00.474-.086 2.863 2.863 0 00.545-.252q.289-.171.493-.309t.512-.361l.4-.29 4.44-3.09a4.511 4.511 0 001.157-1.169A2.514 2.514 0 0017 1.521 1.532 1.532 0 0015.482 0H1.518A1.354 1.354 0 00.394.494 1.922 1.922 0 000 1.73a2.223 2.223 0 00.522 1.3 4.713 4.713 0 001.11 1.096z"/><path d="M16.051 4.793q-3.111 2.1-4.724 3.266-.541.4-.877.62a5.42 5.42 0 01-.9.454 2.735 2.735 0 01-1.043.232H8.49a2.736 2.736 0 01-1.044-.232 5.423 5.423 0 01-.9-.454q-.337-.222-.877-.62Q4.388 7.122.954 4.793A5.023 5.023 0 010 3.97v7.516a1.456 1.456 0 00.446 1.07 1.463 1.463 0 001.072.445h13.964A1.521 1.521 0 0017 11.486V3.97a5.229 5.229 0 01-.949.823z"/></symbol><symbol id="icon-menu-open" viewBox="0 0 40 24"><rect width="40" height="4" rx="1"/><rect y="10" width="40" height="4" rx="1"/><rect y="20" width="40" height="4" rx="1"/></symbol><symbol id="icon-phone" viewBox="0 0 14 14"><path d="M12.428 9.744c-.907-.723-1.828-1.162-2.725-.439l-.535.437c-.392.317-1.12 1.8-3.935-1.221s-1.14-3.484-.747-3.8l.542-.435c.892-.724.555-1.635-.088-2.573l-.388-.568C3.906.209 3.202-.406 2.308.317l-.48.393a4.206 4.206 0 00-1.77 2.797c-.322 1.988.695 4.264 3.025 6.761S7.689 14.021 9.847 14a4.7 4.7 0 003.216-1.241l.485-.394c.892-.722.338-1.458-.57-2.183z"/></symbol><symbol id="icon-play" viewBox="0 0 8 12"><path d="M8 6l-8 6V0z"/></symbol> <view id="icon-arr-view-orange" viewBox="0 0 138.284 8.441"/><view id="icon-arr-view-light" viewBox="0 18.441000000000003 138.284 8.441"/><view id="icon-arr-view-dark" viewBox="0 36.882000000000005 138.284 8.441"/><view id="icon-arr-view-white" viewBox="0 55.32300000000001 138.284 8.441"/><view id="icon-arr_thick-view-orange" viewBox="0 73.76400000000001 28.284 14.147"/><view id="icon-arr_thick-view-light" viewBox="0 97.911 28.284 14.147"/><view id="icon-arr_thick-view-dark" viewBox="0 122.058 28.284 14.147"/><view id="icon-arr_thick-view-white" viewBox="0 146.205 28.284 14.147"/><view id="icon-close-view-orange" viewBox="0 170.352 30 30"/><view id="icon-close-view-light" viewBox="0 210.352 30 30"/><view id="icon-close-view-dark" viewBox="0 250.352 30 30"/><view id="icon-close-view-white" viewBox="0 290.352 30 30"/><view id="icon-half_bullet-view-orange" viewBox="0 330.352 10 5"/><view id="icon-half_bullet-view-light" viewBox="0 345.352 10 5"/><view id="icon-half_bullet-view-dark" viewBox="0 360.352 10 5"/><view id="icon-half_bullet-view-white" viewBox="0 375.352 10 5"/><view id="icon-location-view-orange" viewBox="0 390.352 11 16"/><view id="icon-location-view-light" viewBox="0 416.352 11 16"/><view id="icon-location-view-dark" viewBox="0 442.352 11 16"/><view id="icon-location-view-white" viewBox="0 468.352 11 16"/><view id="icon-mail-view-orange" viewBox="0 494.352 17 13"/><view id="icon-mail-view-light" viewBox="0 517.352 17 13"/><view id="icon-mail-view-dark" viewBox="0 540.352 17 13"/><view id="icon-mail-view-white" viewBox="0 563.352 17 13"/><view id="icon-menu-open-view-orange" viewBox="0 586.352 40 24"/><view id="icon-menu-open-view-light" viewBox="0 620.352 40 24"/><view id="icon-menu-open-view-dark" viewBox="0 654.352 40 24"/><view id="icon-menu-open-view-white" viewBox="0 688.352 40 24"/><view id="icon-phone-view-orange" viewBox="0 722.352 14 14"/><view id="icon-phone-view-light" viewBox="0 746.352 14 14"/><view id="icon-phone-view-dark" viewBox="0 770.352 14 14"/><view id="icon-phone-view-white" viewBox="0 794.352 14 14"/><view id="icon-play-view-orange" viewBox="0 818.352 8 12"/><view id="icon-play-view-light" viewBox="0 840.352 8 12"/><view id="icon-play-view-dark" viewBox="0 862.352 8 12"/><view id="icon-play-view-white" viewBox="0 884.352 8 12"/> <use xlink:href="#icon-arr" x="0" y="0" width="138.284" height="8.441" style="fill:#F0BE55"/><use xlink:href="#icon-arr" x="0" y="18.441000000000003" width="138.284" height="8.441" style="fill:#E2E2E2"/><use xlink:href="#icon-arr" x="0" y="36.882000000000005" width="138.284" height="8.441" style="fill:#707070"/><use xlink:href="#icon-arr" x="0" y="55.32300000000001" width="138.284" height="8.441" style="fill:#ffffff"/><use xlink:href="#icon-arr_thick" x="0" y="73.76400000000001" width="28.284" height="14.147" style="fill:#F0BE55"/><use xlink:href="#icon-arr_thick" x="0" y="97.911" width="28.284" height="14.147" style="fill:#E2E2E2"/><use xlink:href="#icon-arr_thick" x="0" y="122.058" width="28.284" height="14.147" style="fill:#707070"/><use xlink:href="#icon-arr_thick" x="0" y="146.205" width="28.284" height="14.147" style="fill:#ffffff"/><use xlink:href="#icon-close" x="0" y="170.352" width="30" height="30" style="fill:#F0BE55"/><use xlink:href="#icon-close" x="0" y="210.352" width="30" height="30" style="fill:#E2E2E2"/><use xlink:href="#icon-close" x="0" y="250.352" width="30" height="30" style="fill:#707070"/><use xlink:href="#icon-close" x="0" y="290.352" width="30" height="30" style="fill:#ffffff"/><use xlink:href="#icon-half_bullet" x="0" y="330.352" width="10" height="5" style="fill:#F0BE55"/><use xlink:href="#icon-half_bullet" x="0" y="345.352" width="10" height="5" style="fill:#E2E2E2"/><use xlink:href="#icon-half_bullet" x="0" y="360.352" width="10" height="5" style="fill:#707070"/><use xlink:href="#icon-half_bullet" x="0" y="375.352" width="10" height="5" style="fill:#ffffff"/><use xlink:href="#icon-location" x="0" y="390.352" width="11" height="16" style="fill:#F0BE55"/><use xlink:href="#icon-location" x="0" y="416.352" width="11" height="16" style="fill:#E2E2E2"/><use xlink:href="#icon-location" x="0" y="442.352" width="11" height="16" style="fill:#707070"/><use xlink:href="#icon-location" x="0" y="468.352" width="11" height="16" style="fill:#ffffff"/><use xlink:href="#icon-mail" x="0" y="494.352" width="17" height="13" style="fill:#F0BE55"/><use xlink:href="#icon-mail" x="0" y="517.352" width="17" height="13" style="fill:#E2E2E2"/><use xlink:href="#icon-mail" x="0" y="540.352" width="17" height="13" style="fill:#707070"/><use xlink:href="#icon-mail" x="0" y="563.352" width="17" height="13" style="fill:#ffffff"/><use xlink:href="#icon-menu-open" x="0" y="586.352" width="40" height="24" style="fill:#F0BE55"/><use xlink:href="#icon-menu-open" x="0" y="620.352" width="40" height="24" style="fill:#E2E2E2"/><use xlink:href="#icon-menu-open" x="0" y="654.352" width="40" height="24" style="fill:#707070"/><use xlink:href="#icon-menu-open" x="0" y="688.352" width="40" height="24" style="fill:#ffffff"/><use xlink:href="#icon-phone" x="0" y="722.352" width="14" height="14" style="fill:#F0BE55"/><use xlink:href="#icon-phone" x="0" y="746.352" width="14" height="14" style="fill:#E2E2E2"/><use xlink:href="#icon-phone" x="0" y="770.352" width="14" height="14" style="fill:#707070"/><use xlink:href="#icon-phone" x="0" y="794.352" width="14" height="14" style="fill:#ffffff"/><use xlink:href="#icon-play" x="0" y="818.352" width="8" height="12" style="fill:#F0BE55"/><use xlink:href="#icon-play" x="0" y="840.352" width="8" height="12" style="fill:#E2E2E2"/><use xlink:href="#icon-play" x="0" y="862.352" width="8" height="12" style="fill:#707070"/><use xlink:href="#icon-play" x="0" y="884.352" width="8" height="12" style="fill:#ffffff"/></svg>